<?xml version="1.0" standalone="no"?>
<!DOCTYPE svg PUBLIC "-//W3C//DTD SVG 20010904//EN"
 "http://www.w3.org/TR/2001/REC-SVG-20010904/DTD/svg10.dtd">
<svg version="1.0" xmlns="http://www.w3.org/2000/svg"
 width="40" height="40" viewBox="0 0 495 495"
 preserveAspectRatio="xMidYMid meet">
<metadata>
Created by potrace 1.16, written by Peter Selinger 2001-2019
</metadata>
<g transform="translate(0.000000,512.000000) scale(0.100000,-0.100000)"
fill="#000000" stroke="none">
<path d="M4455 4510 c-66 -15 -224 -51 -351 -80 l-231 -52 246 -166 c135 -91
274 -185 308 -209 l62 -43 110 27 c61 15 111 31 111 35 0 16 -121 492 -128
503 -5 9 -39 5 -127 -15z"/>
<path d="M3202 4227 c-73 -17 -129 -33 -125 -37 4 -4 145 -99 313 -211 l305
-205 129 31 128 30 -301 210 c-166 116 -305 211 -309 211 -4 1 -67 -12 -140
-29z"/>
<path d="M2380 4041 c-63 -15 -121 -29 -129 -32 -17 -6 618 -423 642 -421 10
0 80 15 154 33 l135 32 -43 27 c-24 15 -170 109 -323 209 -154 100 -288 181
-300 180 -12 -1 -73 -13 -136 -28z"/>
<path d="M1582 3860 c-68 -15 -125 -30 -127 -31 -1 -2 135 -103 303 -223 l305
-220 160 40 160 39 -325 207 c-178 114 -330 209 -338 212 -8 2 -70 -8 -138
-24z"/>
<path d="M612 3640 c-161 -36 -296 -71 -301 -76 -6 -5 11 -60 42 -134 l52
-125 6 -315 c6 -297 8 -321 33 -415 l26 -100 0 -780 0 -780 24 -50 c29 -60 76
-107 136 -134 45 -20 56 -21 1985 -21 l1940 0 50 24 c60 29 107 76 134 136 20
44 21 60 21 1143 l0 1097 -97 0 -98 0 -162 -173 c-90 -94 -225 -236 -300 -315
l-138 -143 -262 3 -261 3 150 160 c83 88 216 229 296 313 l144 152 -139 0
-138 0 -315 -315 -315 -315 -264 0 -264 0 54 58 c29 31 112 120 184 197 73 77
180 192 239 255 l106 115 -121 3 -121 3 -102 -108 c-157 -167 -231 -248 -356
-391 l-115 -132 -279 0 -279 0 64 68 c35 37 129 137 209 222 80 85 185 197
234 247 l90 93 -138 0 -138 0 -321 -315 -322 -315 -264 0 -263 0 119 128 c66
70 198 210 293 312 l172 185 -211 3 c-193 2 -211 4 -211 20 0 14 41 28 230 76
127 33 227 63 223 67 -7 6 -581 382 -643 421 -23 14 -43 11 -318 -52z"/>
</g>
</svg>
